<mxfile host="app.diagrams.net" modified="2024-05-08T15:32:10.679Z" agent="Mozilla/5.0 (Windows NT 10.0; Win64; x64) AppleWebKit/537.36 (KHTML, like Gecko) Chrome/124.0.0.0 Safari/537.36 Edg/124.0.0.0" etag="uUa1yrQo7yN7gVuFGYKt" version="24.3.1" type="device">
  <diagram name="PÃ¡gina-1" id="IDtpBSLhNiKXYCbeVOkP">
    <mxGraphModel dx="1386" dy="759" grid="1" gridSize="10" guides="1" tooltips="1" connect="1" arrows="1" fold="1" page="1" pageScale="1" pageWidth="827" pageHeight="1169" math="0" shadow="0">
      <root>
        <mxCell id="0" />
        <mxCell id="1" parent="0" />
        <mxCell id="US_Sl5SqodtdgLoIHG7m-7" value="" style="rounded=0;whiteSpace=wrap;html=1;fillColor=#dae8fc;strokeColor=#6c8ebf;" parent="1" vertex="1">
          <mxGeometry x="190" y="210" width="590" height="230" as="geometry" />
        </mxCell>
        <mxCell id="US_Sl5SqodtdgLoIHG7m-10" value="" style="whiteSpace=wrap;html=1;aspect=fixed;fillColor=#d5e8d4;strokeColor=#82b366;" parent="1" vertex="1">
          <mxGeometry x="605" y="270" width="155" height="155" as="geometry" />
        </mxCell>
        <mxCell id="US_Sl5SqodtdgLoIHG7m-9" value="" style="whiteSpace=wrap;html=1;aspect=fixed;fillColor=#d5e8d4;strokeColor=#82b366;" parent="1" vertex="1">
          <mxGeometry x="400" y="270" width="155" height="155" as="geometry" />
        </mxCell>
        <mxCell id="US_Sl5SqodtdgLoIHG7m-8" value="" style="whiteSpace=wrap;html=1;aspect=fixed;fillColor=#d5e8d4;strokeColor=#82b366;" parent="1" vertex="1">
          <mxGeometry x="205" y="270" width="155" height="155" as="geometry" />
        </mxCell>
        <mxCell id="US_Sl5SqodtdgLoIHG7m-1" value="Front-End" style="whiteSpace=wrap;html=1;aspect=fixed;" parent="1" vertex="1">
          <mxGeometry x="242.5" y="320" width="80" height="80" as="geometry" />
        </mxCell>
        <mxCell id="US_Sl5SqodtdgLoIHG7m-3" value="" style="shape=actor;whiteSpace=wrap;html=1;" parent="1" vertex="1">
          <mxGeometry x="70" y="330" width="40" height="60" as="geometry" />
        </mxCell>
        <mxCell id="US_Sl5SqodtdgLoIHG7m-4" value="DB" style="shape=datastore;whiteSpace=wrap;html=1;" parent="1" vertex="1">
          <mxGeometry x="652.5" y="330" width="60" height="60" as="geometry" />
        </mxCell>
        <mxCell id="US_Sl5SqodtdgLoIHG7m-5" value="Back-End" style="whiteSpace=wrap;html=1;aspect=fixed;" parent="1" vertex="1">
          <mxGeometry x="437.5" y="320" width="80" height="80" as="geometry" />
        </mxCell>
        <mxCell id="US_Sl5SqodtdgLoIHG7m-11" value="Entorno" style="text;html=1;align=center;verticalAlign=middle;whiteSpace=wrap;rounded=0;" parent="1" vertex="1">
          <mxGeometry x="205" y="220" width="100" height="30" as="geometry" />
        </mxCell>
        <mxCell id="US_Sl5SqodtdgLoIHG7m-12" value="Contenedor 1" style="text;html=1;align=center;verticalAlign=middle;whiteSpace=wrap;rounded=0;" parent="1" vertex="1">
          <mxGeometry x="244" y="280" width="77" height="30" as="geometry" />
        </mxCell>
        <mxCell id="US_Sl5SqodtdgLoIHG7m-13" value="Contenedor 2" style="text;html=1;align=center;verticalAlign=middle;whiteSpace=wrap;rounded=0;" parent="1" vertex="1">
          <mxGeometry x="439" y="280" width="77" height="30" as="geometry" />
        </mxCell>
        <mxCell id="US_Sl5SqodtdgLoIHG7m-14" value="Contenedor 3" style="text;html=1;align=center;verticalAlign=middle;whiteSpace=wrap;rounded=0;" parent="1" vertex="1">
          <mxGeometry x="644" y="280" width="77" height="30" as="geometry" />
        </mxCell>
        <mxCell id="US_Sl5SqodtdgLoIHG7m-16" value="" style="endArrow=classic;html=1;rounded=0;entryX=0;entryY=0.581;entryDx=0;entryDy=0;entryPerimeter=0;" parent="1" target="US_Sl5SqodtdgLoIHG7m-8" edge="1">
          <mxGeometry width="50" height="50" relative="1" as="geometry">
            <mxPoint x="120" y="360" as="sourcePoint" />
            <mxPoint x="170" y="440" as="targetPoint" />
          </mxGeometry>
        </mxCell>
        <mxCell id="US_Sl5SqodtdgLoIHG7m-17" value="" style="endArrow=classic;html=1;rounded=0;entryX=0;entryY=0.581;entryDx=0;entryDy=0;entryPerimeter=0;" parent="1" edge="1">
          <mxGeometry width="50" height="50" relative="1" as="geometry">
            <mxPoint x="340" y="359.5" as="sourcePoint" />
            <mxPoint x="425" y="359.5" as="targetPoint" />
          </mxGeometry>
        </mxCell>
        <mxCell id="US_Sl5SqodtdgLoIHG7m-18" value="" style="endArrow=classic;html=1;rounded=0;entryX=0;entryY=0.581;entryDx=0;entryDy=0;entryPerimeter=0;" parent="1" edge="1">
          <mxGeometry width="50" height="50" relative="1" as="geometry">
            <mxPoint x="540" y="359.5" as="sourcePoint" />
            <mxPoint x="625" y="359.5" as="targetPoint" />
          </mxGeometry>
        </mxCell>
        <mxCell id="US_Sl5SqodtdgLoIHG7m-19" value="" style="endArrow=classic;html=1;rounded=0;entryX=0;entryY=0.581;entryDx=0;entryDy=0;entryPerimeter=0;" parent="1" edge="1">
          <mxGeometry width="50" height="50" relative="1" as="geometry">
            <mxPoint x="620" y="380" as="sourcePoint" />
            <mxPoint x="540" y="380" as="targetPoint" />
          </mxGeometry>
        </mxCell>
        <mxCell id="US_Sl5SqodtdgLoIHG7m-20" value="" style="endArrow=classic;html=1;rounded=0;entryX=0;entryY=0.581;entryDx=0;entryDy=0;entryPerimeter=0;" parent="1" edge="1">
          <mxGeometry width="50" height="50" relative="1" as="geometry">
            <mxPoint x="420" y="380" as="sourcePoint" />
            <mxPoint x="340" y="380" as="targetPoint" />
          </mxGeometry>
        </mxCell>
        <mxCell id="US_Sl5SqodtdgLoIHG7m-21" value="" style="endArrow=classic;html=1;rounded=0;entryX=0;entryY=0.581;entryDx=0;entryDy=0;entryPerimeter=0;" parent="1" edge="1">
          <mxGeometry width="50" height="50" relative="1" as="geometry">
            <mxPoint x="205" y="380" as="sourcePoint" />
            <mxPoint x="125" y="380" as="targetPoint" />
          </mxGeometry>
        </mxCell>
      </root>
    </mxGraphModel>
  </diagram>
</mxfile>
